<?xml version="1.0" encoding="utf-8"?>
<!-- Generator: Adobe Illustrator 17.0.2, SVG Export Plug-In . SVG Version: 6.00 Build 0)  -->
<!DOCTYPE svg PUBLIC "-//W3C//DTD SVG 1.1//EN" "http://www.w3.org/Graphics/SVG/1.1/DTD/svg11.dtd">
<svg version="1.1" id="Layer_1" xmlns="http://www.w3.org/2000/svg" xmlns:xlink="http://www.w3.org/1999/xlink" x="0px" y="0px"
	 width="570.24px" height="570.24px" viewBox="20.88 110.88 570.24 570.24" enable-background="new 20.88 110.88 570.24 570.24"
	 xml:space="preserve">
<g>
	<path fill="#969696" d="M591.12,645.568c0,19.536-16.016,35.552-35.552,35.552H56.432c-19.536,0-35.552-16.016-35.552-35.552
		V146.432c0-19.536,16.016-35.552,35.552-35.552h498.96c19.536,0,35.552,16.016,35.552,35.552v499.136H591.12z"/>
</g>
<g>
	<path fill="#FFFFFF" d="M118.912,260.656v247.632c0,1.76,1.76,5.28,5.28,5.28h363.44c1.76,0,5.28-1.76,5.28-5.28V260.656H118.912z
		 M453.84,283.712L306,392.48L158.16,283.712H453.84z M462.816,485.056H149.184V312.224l140.8,103.312l17.776,12.496l17.776-12.496
		l140.8-103.312v172.832H462.816z"/>
</g>
</svg>
