<?xml version="1.0" encoding="utf-8"?>
<!-- Generator: Adobe Illustrator 17.0.2, SVG Export Plug-In . SVG Version: 6.00 Build 0)  -->
<!DOCTYPE svg PUBLIC "-//W3C//DTD SVG 1.1//EN" "http://www.w3.org/Graphics/SVG/1.1/DTD/svg11.dtd">
<svg version="1.1" id="Layer_1" xmlns="http://www.w3.org/2000/svg" xmlns:xlink="http://www.w3.org/1999/xlink" x="0px" y="0px"
	 width="552.774px" height="341.535px" viewBox="29.613 222.976 552.774 341.535"
	 enable-background="new 29.613 222.976 552.774 341.535" xml:space="preserve">
<g>
	<path fill="#969696" d="M155.679,292.073v199.112c0,1.41,1.41,4.23,4.23,4.23h291.899c1.41,0,4.23-1.41,4.23-4.23V292.073H155.679z
		 M424.734,310.687L306,398.115l-118.734-87.429H424.734z M432.066,472.571H179.934v-139.04l113.375,83.198l14.383,10.153
		l14.383-10.153l113.093-82.916V472.57L432.066,472.571L432.066,472.571z"/>
</g>
<path fill="none" stroke="#969696" stroke-miterlimit="10" d="M582.387,545.898c0,10.153-8.461,18.614-18.614,18.614H48.227
	c-10.153,0-18.614-8.461-18.614-18.614V241.59c0-10.153,8.461-18.614,18.614-18.614h515.547c10.153,0,18.614,8.461,18.614,18.614
	L582.387,545.898L582.387,545.898z"/>
</svg>
