<svg xmlns="http://www.w3.org/2000/svg" viewBox="0 0 813.99 236"><defs><style>.cls-1{fill:#b2b2b2;}</style></defs><title>Asset 1</title><g id="Layer_2" data-name="Layer 2"><g id="Layer_1-2" data-name="Layer 1"><polygon class="cls-1" points="88 107 28 107 28 44 0 44 0 199 28 199 28 134 88 134 88 199 117 199 117 44 88 44 88 107"/><path class="cls-1" d="M207,148.36a23.5,23.5,0,1,1-47,0V82H133v66.36a50.5,50.5,0,0,0,101,0V82H207Z"/><path class="cls-1" d="M308.67,82.5C295.32,82.5,286,86.38,277,95.21V44H250v94.91c0,35.53,25.69,59.86,54.54,59.86,32.08,0,60.19-24.76,60.19-58.13C364.73,107.69,338.82,82.5,308.67,82.5Zm.67,91.29c-18.3,0-32.29-15.28-32.29-33.15s14-33.16,32.29-33.16c15.5,0,29.5,15.28,29.5,33.16S324.84,173.79,309.34,173.79Z"/><path class="cls-1" d="M410.09,89.31c0-13.57,9-17.88,18.94-17.88,8,0,18.52,6,25.4,13.35l17.65-20.67c-8.82-11.84-26.69-20-41.33-20-29.28,0-50.38,17-50.38,45.22,0,52.32,64.38,35.73,64.38,65,0,9-8.82,17-18.94,17-15.94,0-21.11-7.75-28.43-15.93l-19.6,20.24c12.49,15.29,28,23,46.51,23,27.77,0,50.17-17.22,50.17-44.14C474.46,96.41,410.09,114.49,410.09,89.31Z"/><path class="cls-1" d="M605.74,139.12c0-33.37-28.12-58.13-60.19-58.13C516.69,81,491,105.3,491,140.84V236h27V184.54c9,8.83,18.31,12.71,31.67,12.71C579.81,197.25,605.74,172.06,605.74,139.12Zm-55.39,33.16c-18.29,0-32.29-15.3-32.29-33.16S532,106,550.34,106c15.5,0,29.5,15.28,29.5,33.16S565.84,172.28,550.34,172.28Z"/><path class="cls-1" d="M804.47,173.79c-15.93,0-20.47-6.89-20.47-17.44V110h25V86H784V54.73L757,67v95.16c0,24.33,16.64,36.61,39.67,36.61a54.47,54.47,0,0,0,10.7-.86L814,173.37C811,173.57,807.49,173.79,804.47,173.79Z"/><path class="cls-1" d="M711.82,89.59A57.68,57.68,0,0,0,690,82V53.74a20.78,20.78,0,0,0,12.84-19.56,21.36,21.36,0,1,0-42.71,0A20.8,20.8,0,0,0,673,53.74V82A58.79,58.79,0,0,0,653.74,88c-12.3-9.34-52.77-40-76.37-57.89a23.39,23.39,0,0,0,.92-6.29,23.84,23.84,0,1,0-23.87,23.82,23.57,23.57,0,0,0,12.22-3.47l5,3.78L640,97.24a56.35,56.35,0,0,0-9.46,11.34A52.69,52.69,0,0,0,622,137.09v2.16a59.66,59.66,0,0,0,3.52,20.61,53.83,53.83,0,0,0,8.75,15.4L611.51,198a18.38,18.38,0,1,0,11.19,11.74l23.47-23.47a60.15,60.15,0,0,0,10.43,5.64A60.94,60.94,0,0,0,681,197h1.63a58.61,58.61,0,0,0,49.78-27.5,53.91,53.91,0,0,0,8.58-29V140A57.09,57.09,0,0,0,733.31,111,59.17,59.17,0,0,0,711.82,89.59ZM704.6,159.9c-6.37,7.08-13.69,11.1-22,11.1h-1.36a29.24,29.24,0,0,1-13.88-3.34,31.88,31.88,0,0,1-12.24-10.9,25.43,25.43,0,0,1-5.15-14.9v-1.63a31,31,0,0,1,3.65-15A32.76,32.76,0,0,1,665,112.78,27.89,27.89,0,0,1,680.74,108h.53A31.83,31.83,0,0,1,696,111.44,31.33,31.33,0,0,1,707.6,122a33.57,33.57,0,0,1,5.19,14.82c.09,1.11.13,2.08.13,3.17C712.92,147.25,710.15,153.8,704.6,159.9Z"/></g></g></svg>