<svg xmlns="http://www.w3.org/2000/svg" xmlns:xlink="http://www.w3.org/1999/xlink" version="1.1" x="0px" y="0px" viewBox="0 0 89.4 120" enable-background="new 0 0 89.4 120" xml:space="preserve">
<style>
	.style0{
		fill:	#FFFFFF;
	}
	.style1{
		fill:	#3594BA;
	}
	.style2{
		stroke-linejoin:	round;
		stroke:	#3594BA;
		stroke-width:	3;
		stroke-miterlimit:	10;
		fill:	#FFFFFF;
	}
	.style3{
		stroke-linejoin:	round;
		stroke:	#3594BA;
		stroke-width:	1.25;
		stroke-miterlimit:	10;
		fill:	#3594BA;
	}
	.style4{
		stroke-linejoin:	round;
		stroke:	#3594BA;
		stroke-linecap:	round;
		stroke-miterlimit:	10;
		stroke-width:	3;
		fill:	none;
	}
</style><g>
	<g>
		<path d="M11.7 115.9c-3.6 0-6.6-3-6.6-6.6V19.2c0-3.6 3-6.6 6.6-6.6h65.9c3.6 0 6.6 3 6.6 6.6v90.1 c0 3.6-3 6.6-6.6 6.6H11.7z" class="style0"/>
		<path d="M77.6 14.1c2.8 0 5.1 2.3 5.1 5.1v90.1c0 2.8-2.3 5.1-5.1 5.1H11.7c-2.8 0-5.1-2.3-5.1-5.1V19.2 c0-2.8 2.3-5.1 5.1-5.1H77.6 M77.6 11.1H11.7c-4.5 0-8.1 3.6-8.1 8.1v90.1c0 4.5 3.6 8.1 8.1 8.1h65.9c4.5 0 8.1-3.6 8.1-8.1V19.2 C85.8 14.8 82.1 11.1 77.6 11.1L77.6 11.1z" class="style1"/>
	</g>
	
		<rect x="11.3" y="23.3" width="66.9" height="86.5" class="style2"/>
	<g>
		<path d="M18.6 24.8c-1.6 0-2.8-1.5-2.8-3.3V15c0-1.8 1.3-3.3 2.8-3.3h16.6c0.7 0 1.2-0.4 1.4-1.1 c1.2-3.9 4.4-6.5 8.1-6.5s6.9 2.6 8.1 6.5c0.2 0.6 0.8 1.1 1.4 1.1h16.6c1.6 0 2.8 1.5 2.8 3.3v6.6c0 1.8-1.3 3.3-2.8 3.3H18.6z" class="style0"/>
		<path d="M44.7 5.6c3 0 5.7 2.2 6.6 5.5c0.4 1.3 1.5 2.1 2.9 2.1h16.6c0.7 0 1.3 0.8 1.3 1.8v6.6 c0 1-0.6 1.8-1.3 1.8H18.6c-0.7 0-1.3-0.8-1.3-1.8V15c0-1 0.6-1.8 1.3-1.8h16.6c1.3 0 2.5-0.9 2.9-2.1C39 7.8 41.7 5.6 44.7 5.6 M44.7 2.6c-4.4 0-8.2 3.2-9.5 7.6H18.6c-2.4 0-4.3 2.1-4.3 4.8v6.6c0 2.6 1.9 4.8 4.3 4.8h52.2c2.4 0 4.3-2.1 4.3-4.8V15 c0-2.6-1.9-4.8-4.3-4.8H54.2C52.9 5.8 49.1 2.6 44.7 2.6L44.7 2.6z" class="style1"/>
	</g>
	<g>
		<path d="M44.7 16.7c-2.6 0-4.7-2.1-4.7-4.7s2.1-4.7 4.7-4.7s4.7 2.1 4.7 4.7S47.2 16.7 44.7 16.7z" class="style1"/>
		<path d="M44.7 9c1.6 0 3 1.3 3 3s-1.3 3-3 3s-3-1.3-3-3S43 9 44.7 9 M44.7 5.6c-3.5 0-6.4 2.8-6.4 6.4 s2.8 6.4 6.4 6.4S51 15.5 51 12S48.2 5.6 44.7 5.6L44.7 5.6z" class="style0"/>
	</g>
	
		<circle cx="20.4" cy="38" r="1.1" class="style3"/>
	
		<line x1="28.6" y1="37.9" x2="70.2" y2="37.9" class="style4"/>
	
		<circle cx="20.4" cy="51.8" r="1.1" class="style3"/>
	
		<line x1="28.6" y1="51.7" x2="70.2" y2="51.7" class="style4"/>
	
		<circle cx="20.4" cy="65.5" r="1.1" class="style3"/>
	
		<line x1="28.7" y1="65.5" x2="70.3" y2="65.5" class="style4"/>
	
		<circle cx="20.4" cy="79.3" r="1.1" class="style3"/>
	
		<line x1="28.7" y1="79.3" x2="70.3" y2="79.3" class="style4"/>
	
		<circle cx="20.4" cy="93" r="1.1" class="style3"/>
	
		<line x1="28.7" y1="93" x2="70.3" y2="93" class="style4"/>
</g>
<g display="none">
	<g display="inline">
		<path d="M11.7 115.9c-3.6 0-6.6-3-6.6-6.6V19.2c0-3.6 3-6.6 6.6-6.6h65.9c3.6 0 6.6 3 6.6 6.6v90.1 c0 3.6-3 6.6-6.6 6.6H11.7z" class="style0"/>
		<path d="M77.6 14.1c2.8 0 5.1 2.3 5.1 5.1v90.1c0 2.8-2.3 5.1-5.1 5.1H11.7c-2.8 0-5.1-2.3-5.1-5.1V19.2 c0-2.8 2.3-5.1 5.1-5.1H77.6 M77.6 11.1H11.7c-4.5 0-8.1 3.6-8.1 8.1v90.1c0 4.5 3.6 8.1 8.1 8.1h65.9c4.5 0 8.1-3.6 8.1-8.1V19.2 C85.8 14.8 82.1 11.1 77.6 11.1L77.6 11.1z" class="style1"/>
	</g>
	
		<rect x="11.2" y="23.2" display="inline" width="66.9" height="86.5" class="style2"/>
	<g display="inline">
		<path d="M18.6 24.8c-1.6 0-2.8-1.5-2.8-3.3V15c0-1.8 1.3-3.3 2.8-3.3h16.6c0.7 0 1.2-0.4 1.4-1.1 c1.2-3.9 4.4-6.5 8.1-6.5s6.9 2.6 8.1 6.5c0.2 0.6 0.8 1.1 1.4 1.1h16.6c1.6 0 2.8 1.5 2.8 3.3v6.6c0 1.8-1.3 3.3-2.8 3.3H18.6z" class="style0"/>
		<path d="M44.7 5.6c3 0 5.7 2.2 6.6 5.5c0.4 1.3 1.5 2.1 2.9 2.1h16.6c0.7 0 1.3 0.8 1.3 1.8v6.6 c0 1-0.6 1.8-1.3 1.8H18.6c-0.7 0-1.3-0.8-1.3-1.8V15c0-1 0.6-1.8 1.3-1.8h16.6c1.3 0 2.5-0.9 2.9-2.1C39 7.8 41.7 5.6 44.7 5.6 M44.7 2.6c-4.4 0-8.2 3.2-9.5 7.6H18.6c-2.4 0-4.3 2.1-4.3 4.8v6.6c0 2.6 1.9 4.8 4.3 4.8h52.2c2.4 0 4.3-2.1 4.3-4.8V15 c0-2.6-1.9-4.8-4.3-4.8H54.2C52.9 5.8 49.1 2.6 44.7 2.6L44.7 2.6z" class="style1"/>
	</g>
	<g display="inline">
		<path d="M44.7 16.7c-2.6 0-4.7-2.1-4.7-4.7s2.1-4.7 4.7-4.7s4.7 2.1 4.7 4.7S47.2 16.7 44.7 16.7z" class="style1"/>
		<path d="M44.7 9c1.6 0 3 1.3 3 3s-1.3 3-3 3s-3-1.3-3-3S43 9 44.7 9 M44.7 5.6c-3.5 0-6.4 2.8-6.4 6.4 s2.8 6.4 6.4 6.4S51 15.5 51 12S48.2 5.6 44.7 5.6L44.7 5.6z" class="style0"/>
	</g>
	<g display="inline">
		
			<polyline points="17,39.3 17,93.6 71.2,93.6" class="style4"/>
	</g>
	
		<line display="inline" x1="21.4" y1="82" x2="65.4" y2="50.5" class="style4"/>
	
		<circle display="inline" cx="31.4" cy="82" r="1.1" class="style3"/>
	
		<circle display="inline" cx="38.9" cy="80.9" r="1.1" class="style3"/>
	
		<circle display="inline" cx="44.7" cy="71.5" r="1.1" class="style3"/>
	
		<circle display="inline" cx="57.9" cy="70" r="1.1" class="style3"/>
	
		<circle display="inline" cx="40" cy="61.3" r="1.1" class="style3"/>
	
		<circle display="inline" cx="29.8" cy="67" r="1.1" class="style3"/>
	
		<circle display="inline" cx="22.5" cy="68.8" r="1.1" class="style3"/>
	
		<circle display="inline" cx="51.4" cy="44.5" r="1.1" class="style3"/>
	
		<circle display="inline" cx="51.8" cy="70.3" r="1.1" class="style3"/>
	
		<circle display="inline" cx="61.5" cy="62.5" r="1.1" class="style3"/>
	
		<circle display="inline" cx="44.5" cy="49.5" r="1.1" class="style3"/>
	
		<circle display="inline" cx="36.2" cy="56" r="1.1" class="style3"/>
</g>
</svg>
